<svg xmlns="http://www.w3.org/2000/svg" viewBox="0 0 512 512"><path fill="#dbf2fc" d="M412.848 158.785H99.152L29.558 274.774 256 512l226.441-237.226z"/><path d="M99.152 158.785L29.558 274.774h151.775zm313.696 0H256V512l226.441-237.226zM241 0h30v63.845h-30zM88.572 130.246L47.532 81.34l22.98-19.283 41.039 48.904zm334.851.012l-22.98-19.284 41.04-48.904 22.978 19.283z" fill="#b7e4f9"/><path fill="#94d7f6" d="M412.848 158.785l69.593 115.989H330.667z"/><path fill="#b7e4f9" d="M181.333 274.774h149.334L256 158.785z"/><path fill="#94d7f6" d="M256 274.774h74.667L256 158.785z"/><path fill="#dbf2fc" d="M256 274.774h74.667L256 512z"/><path fill="#94d7f6" d="M181.333 274.774H256V512z"/></svg>