<?xml version="1.0" encoding="iso-8859-1"?>
<!-- Generator: Adobe Illustrator 19.0.0, SVG Export Plug-In . SVG Version: 6.00 Build 0)  -->
<svg version="1.1" id="Layer_1" xmlns="http://www.w3.org/2000/svg" xmlns:xlink="http://www.w3.org/1999/xlink" x="0px" y="0px"
	 viewBox="0 0 512 512" style="enable-background:new 0 0 512 512;" xml:space="preserve">
<polygon style="fill:#DBF2FC;" points="412.848,158.785 99.152,158.785 29.558,274.774 256,512 482.441,274.774 "/>
<g>
	<polygon style="fill:#B7E4F9;" points="99.152,158.785 29.558,274.774 181.333,274.774 	"/>
	<polygon style="fill:#B7E4F9;" points="412.848,158.785 256,158.785 256,512 482.441,274.774 	"/>
	<rect x="241" style="fill:#B7E4F9;" width="30" height="63.845"/>
	
		<rect x="47.621" y="81.149" transform="matrix(-0.6428 -0.766 0.766 -0.6428 57.0223 218.8861)" style="fill:#B7E4F9;" width="63.844" height="29.999"/>
	
		<rect x="417.446" y="64.233" transform="matrix(-0.766 -0.6428 0.6428 -0.766 701.8972 447.7946)" style="fill:#B7E4F9;" width="29.999" height="63.844"/>
</g>
<polygon style="fill:#94D7F6;" points="412.848,158.785 482.441,274.774 330.667,274.774 "/>
<polygon style="fill:#B7E4F9;" points="181.333,274.774 330.667,274.774 256,158.785 "/>
<polygon style="fill:#94D7F6;" points="256,274.774 330.667,274.774 256,158.785 "/>
<polygon style="fill:#DBF2FC;" points="256,274.774 330.667,274.774 256,512 "/>
<polygon style="fill:#94D7F6;" points="181.333,274.774 256,274.774 256,512 "/>
<g>
</g>
<g>
</g>
<g>
</g>
<g>
</g>
<g>
</g>
<g>
</g>
<g>
</g>
<g>
</g>
<g>
</g>
<g>
</g>
<g>
</g>
<g>
</g>
<g>
</g>
<g>
</g>
<g>
</g>
</svg>
