<?xml version="1.0" encoding="iso-8859-1"?>
<!-- Generator: Adobe Illustrator 19.0.0, SVG Export Plug-In . SVG Version: 6.00 Build 0)  -->
<svg version="1.1" id="Layer_1" xmlns="http://www.w3.org/2000/svg" xmlns:xlink="http://www.w3.org/1999/xlink" x="0px" y="0px"
	 viewBox="0 0 511.999 511.999" style="enable-background:new 0 0 511.999 511.999;" xml:space="preserve">
<g>
	<g>
		<path d="M256.002,139.736c-30.324,0-54.996,24.672-54.996,54.996c0,30.324,24.671,54.996,54.996,54.996
			c30.324,0,54.996-24.672,54.996-54.996C310.998,164.408,286.326,139.736,256.002,139.736z M256.002,233.064
			c-21.136,0-38.332-17.196-38.332-38.332s17.195-38.332,38.332-38.332c21.136,0,38.332,17.196,38.332,38.332
			S277.137,233.064,256.002,233.064z"/>
	</g>
</g>
<g>
	<g>
		<path d="M379.273,168.583l-23.858-1.573c-2.23-8.012-5.416-15.694-9.52-22.954l15.763-17.986c2.893-3.302,2.73-8.281-0.374-11.384
			l-25.237-25.239c-3.103-3.103-8.08-3.267-11.381-0.377l-4.297,3.763c-0.088,0.077-0.174,0.156-0.259,0.237l-13.432,11.767
			c-7.26-4.104-14.942-7.289-22.956-9.52l-1.572-23.858c-0.289-4.379-3.925-7.784-8.314-7.784h-35.679
			c-4.389,0-8.025,3.405-8.314,7.784l-1.572,23.858c-8.014,2.231-15.694,5.416-22.948,9.519l-17.994-15.763
			c-3.297-2.89-8.271-2.727-11.375,0.369l-25.246,25.246c-3.102,3.105-3.265,8.083-0.371,11.384l15.768,17.983
			c-4.106,7.257-7.294,14.94-9.526,22.957l-23.848,1.572c-4.38,0.289-7.784,3.925-7.784,8.314v35.679
			c0,4.389,3.404,8.026,7.783,8.314l23.848,1.573c2.233,8.018,5.42,15.699,9.525,22.949l-15.768,17.991
			c-2.894,3.303-2.729,8.284,0.378,11.387l25.233,25.233c3.102,3.104,8.082,3.27,11.385,0.375l17.991-15.769
			c7.251,4.106,14.932,7.293,22.95,9.525l1.572,23.847c0.288,4.38,3.925,7.786,8.314,7.786h35.679c4.389,0,8.026-3.404,8.315-7.782
			l1.572-23.849c8.017-2.231,15.7-5.419,22.956-9.525l17.983,15.768c3.302,2.894,8.281,2.731,11.385-0.373l25.237-25.239
			c3.103-3.103,3.267-8.081,0.375-11.382l-15.763-17.994c4.103-7.254,7.289-14.935,9.519-22.948l23.858-1.573
			c4.38-0.289,7.784-3.925,7.784-8.314v-35.679C387.057,172.508,383.652,168.872,379.273,168.583z M370.392,204.775l-22.159,1.461
			c-3.719,0.245-6.825,2.932-7.601,6.578c-2.2,10.33-6.241,20.073-12.012,28.959c-2.032,3.127-1.736,7.223,0.72,10.029
			l14.645,16.716l-14.206,14.205l-16.706-14.649c-2.806-2.46-6.904-2.754-10.033-0.722c-8.889,5.775-18.635,9.82-28.967,12.02
			c-3.646,0.777-6.332,3.882-6.578,7.601l-1.46,22.15h-20.076l-1.46-22.151c-0.246-3.719-2.932-6.823-6.578-7.6
			c-10.335-2.202-20.077-6.245-28.955-12.018c-3.127-2.034-7.228-1.741-10.034,0.719l-16.714,14.65l-14.203-14.207l14.648-16.713
			c2.46-2.806,2.754-6.906,0.719-10.034c-5.773-8.876-9.816-18.618-12.018-28.955c-0.777-3.646-3.882-6.332-7.601-6.578
			l-22.15-1.461v-20.077l22.149-1.46c3.719-0.246,6.825-2.932,7.601-6.578c2.202-10.333,6.246-20.079,12.02-28.968
			c2.032-3.13,1.738-7.228-0.722-10.033l-14.65-16.709l14.201-14.208l16.722,14.649c2.805,2.457,6.901,2.752,10.027,0.721
			c8.886-5.77,18.629-9.811,28.959-12.012c3.646-0.777,6.332-3.881,6.578-7.601l1.46-22.159h20.077l1.46,22.159
			c0.244,3.719,2.932,6.825,6.578,7.601c10.326,2.2,20.074,6.241,28.972,12.014c3.127,2.029,7.222,1.733,10.024-0.723l16.712-14.64
			l14.202,14.202l-14.642,16.706c-2.456,2.804-2.752,6.899-0.723,10.026c5.772,8.899,9.815,18.647,12.014,28.972
			c0.777,3.646,3.881,6.332,7.601,6.578l22.159,1.461V204.775z"/>
	</g>
</g>
<g>
	<g>
		<path d="M471.246,24.766H40.754C18.283,24.766,0,43.049,0,65.52v59.227c0,4.602,3.731,8.332,8.332,8.332
			c4.601,0,8.332-3.731,8.332-8.332V65.52c0-13.284,10.807-24.09,24.09-24.09h430.492c13.284,0,24.09,10.807,24.09,24.09v284.411
			h-52.21c-4.602,0-8.332,3.731-8.332,8.332s3.731,8.332,8.332,8.332h52.21v15.273c0,13.284-10.807,24.09-24.09,24.09h-155.41
			H196.164H40.754c-13.284,0-24.09-10.807-24.09-24.09v-15.273h398.688c4.602,0,8.332-3.731,8.332-8.332s-3.731-8.332-8.332-8.332
			H16.664V152.522c0-4.602-3.731-8.332-8.332-8.332c-4.601,0-8.332,3.73-8.332,8.332V381.87c0,22.472,18.283,40.754,40.754,40.754
			H183.54l-20.494,47.945h-40.034c-4.602,0-8.332,3.731-8.332,8.332s3.731,8.332,8.332,8.332h265.975
			c4.602,0,8.332-3.731,8.332-8.332s-3.731-8.332-8.332-8.332h-40.034l-20.494-47.945h142.786c22.472,0,40.754-18.282,40.754-40.754
			V65.52C512,43.049,493.717,24.766,471.246,24.766z M330.83,470.568H181.17l14.238-33.31h121.185L330.83,470.568z"/>
	</g>
</g>
<g>
	<g>
		<path d="M262.924,379.679c-1.914-2.906-5.583-4.299-8.952-3.457c-3.517,0.879-6.116,4.048-6.291,7.67
			c-0.364,7.534,9.106,11.629,14.33,6.172C264.674,387.282,265.089,382.887,262.924,379.679z"/>
	</g>
</g>
<g>
</g>
<g>
</g>
<g>
</g>
<g>
</g>
<g>
</g>
<g>
</g>
<g>
</g>
<g>
</g>
<g>
</g>
<g>
</g>
<g>
</g>
<g>
</g>
<g>
</g>
<g>
</g>
<g>
</g>
</svg>
